<svg xmlns="http://www.w3.org/2000/svg" xmlns:xlink="http://www.w3.org/1999/xlink" width="1366" zoomAndPan="magnify" viewBox="0 0 1024.5 576" height="768" preserveAspectRatio="xMidYMid meet" version="1.0"><defs><clipPath id="1ec7e87a09"><path d="M 0 0.140625 L 1024 0.140625 L 1024 575.859375 L 0 575.859375 Z M 0 0.140625 " clip-rule="nonzero"/></clipPath><clipPath id="4e00e8b8e3"><path d="M 220 18 L 653 18 L 653 556 L 220 556 Z M 220 18 " clip-rule="nonzero"/></clipPath><clipPath id="a03c8acfe4"><path d="M 402.453125 -197.003906 L 960 141.351562 L 621.644531 698.898438 L 64.097656 360.542969 Z M 402.453125 -197.003906 " clip-rule="nonzero"/></clipPath><clipPath id="14e9e1bbd9"><path d="M 402.453125 -197.003906 L 960 141.351562 L 621.644531 698.898438 L 64.097656 360.542969 Z M 402.453125 -197.003906 " clip-rule="nonzero"/></clipPath></defs><g clip-path="url(#1ec7e87a09)"><path fill="#ffffff" d="M 0 0.140625 L 1024 0.140625 L 1024 575.859375 L 0 575.859375 Z M 0 0.140625 " fill-opacity="1" fill-rule="nonzero"/><path fill="#000000" d="M 0 0.140625 L 1024 0.140625 L 1024 575.859375 L 0 575.859375 Z M 0 0.140625 " fill-opacity="1" fill-rule="nonzero"/></g><g clip-path="url(#4e00e8b8e3)"><g clip-path="url(#a03c8acfe4)"><g clip-path="url(#14e9e1bbd9)"><path fill="#ffffff" d="M 652.917969 18.539062 L 220.953125 337.671875 L 227.390625 363.980469 L 427.449219 390.070312 L 542.957031 555.488281 L 569.261719 549.050781 Z M 652.917969 18.539062 " fill-opacity="1" fill-rule="nonzero"/></g></g></g></svg>